<svg xmlns="http://www.w3.org/2000/svg" viewBox="116.68612099644128 57.24 812.1209964412811 793.8" version="1.1" style="max-height: 500px" width="812.1209964412811" height="793.8">
<path fill="#FCFCFC" d="m0 0h1012v900h-1012z" transform="translate(0)"/>
<path fill="#FCFCFC" d="m0 0h54l32 4 25 5 27 7 29 10 24 11 23 12 21 13 17 12 16 13 11 9 26 26 7 8 13 16 13 18 16 26 15 30 10 25 8 25 7 30 4 25 3 33v43l-4 36-6 30-9 31-10 26-8 18-12 22-11 18-8 12-12 16-11 13-12 13-21 21-11 9-16 13-21 14-13 8-22 12-24 11-21 8-31 9-28 6-29 4-14 1h-40l-36-4-27-5-24-6-27-9-30-13-21-11-24-15-18-13-16-13-12-11-8-7-7-7v-2l-3-1-7-8-9-10-13-17-10-14-13-21-14-27-11-26-10-30-8-34-4-27-2-24v-46l2-22 5-30 6-25 6-21 11-29 13-27 16-27 10-14 8-11 13-16 14-15 22-22 28-22 18-12 13-8 24-13 25-11 25-9 34-9 30-5z" transform="translate(499,80)"/>
<path fill="#1F9FBB" d="m0 0h17l26 8 25 4h9l25-4 27-8h13l1 1 2 29 4 24 4 15 6 17 8 17 11 18 10 13 13 15 13 12-1 3-2 1-11 1h-260l-14-5-10-9-6-9-2-6v-49l3-16 6-16 9-14 9-11 7-7 12-9 10-6 16-6 10-2z" transform="translate(384,474)"/>
<path fill="#1F9FBB" d="m0 0 10 1 25 9 38 15 22 9 10 6 5 6 1 11-3 28-5 22-7 20-11 21-9 12-9 10-19 19-11 8-14 9-14 6-8 1-14-6-18-11-11-9-10-9-10-11-13-18-10-17-8-20-6-22-3-23v-12l2-12 7-6 18-8 72-28z" transform="translate(652,427)"/>
<path fill="#1F9FBB" d="m0 0h27l14 3 13 5 11 6 13 10 8 8 10 14 8 17 4 15 1 5v21l-4 18-5 13-9 14-9 11-10 9-13 8-12 6-24 6h-16l-19-4-15-6-13-8-11-9-10-11-8-13-6-13-4-15-1-8v-11l2-17 5-17 9-16 11-13 11-10 14-9 15-6z" transform="translate(442,263)"/>
<path fill="#1F9FBB" d="m0 0 34 1 33 4 26 5 29 8 23 8 23 10 21 10 19 11 24 16 16 12 14 12 16 15 13 13 9 11 8 9 14 19 10 15 9 15 13 24 11 24 8 21 9 31 6 29 3 20 2 25v42l-4 38-5 27-8 30-10 28-13 29-10 19-14 23-8 11-11 15-12 14-11 12-9 10-8 7-14 13-14 11-15 11-20 13-18 10-15 8-16 7-17 7-31 10-24 6-22 4-25 3-13 1h-39l-37-4-31-6-22-6-27-9-26-11-19-10-18-10-14-9-17-12-16-13-10-9-8-7-23-23-9-11-13-16-16-24-9-15-8-14-11-23-11-28-7-22-7-28-5-31-2-23v-49l3-29 5-28 9-34 10-28 9-21 8-16 9-17 10-16 9-13 10-13 13-16 15-16 16-16 8-7 12-10 16-12 10-7 19-12 28-15 25-11 33-11 27-7 28-5 26-3zm-20 13-37 5-25 5-29 8-27 10-28 13-23 13-18 12-11 8-20 16-10 9-24 24-7 8-8 10-9 12-10 14-15 25-12 23-8 19-8 23-7 24-6 29-4 28-1 13v46l3 32 4 24 8 32 9 27 11 26 11 22 14 23 12 17 11 14 9 10 7 8 3 4h2l2 4 8 8 8 7 12 11 13 10 18 13 19 12 24 13 27 12 25 9 26 7 26 5 30 4 12 1h40l22-2 32-5 32-8 27-9 30-13 23-12 24-15 18-13 17-14 13-12 21-21 7-8 12-15 13-18 11-18 9-16 8-15 10-24 8-22 8-29 5-26 4-36v-43l-3-33-5-30-7-28-10-30-9-21-14-28-15-24-11-15-11-14-18-20-22-22-14-11-15-12-12-8-18-11-18-10-25-12-24-9-19-6-28-7-31-5-18-2z" transform="translate(519,67)"/>
<path fill="#FCFCFC" d="m0 0 6 1 29 12 21 8 14 6 1 1-1 10-5 23-6 16-7 14-10 13-9 10-11 11-16 11-6 1z" transform="translate(656,464)"/>
</svg>