<svg xmlns="http://www.w3.org/2000/svg" viewBox="226.991214057508 96.1744 968.9392971246007 952.88" version="1.1" style="max-height: 500px" width="968.9392971246007" height="952.88">
<path fill="#FDFDFD" d="m0 0h1388v1108h-1388z" transform="translate(0)"/>
<path fill="#FDFDFD" d="m0 0h20l36 2 36 5 30 6 25 7 27 9 29 12 25 12 23 13 22 14 17 12 14 11 11 9 13 12 10 10 7 6 7 8 13 14 11 14 10 13 12 17 13 21 10 18 11 21 11 25 9 24 8 26 8 34 5 31 2 20 1 17v41l-4 42-5 29-6 26-9 29-9 25-13 29-14 27-14 23-7 10-10 14-13 17-13 15-7 7-7 8-14 14-8 7-14 13-24 18-17 12-23 14-26 14-29 13-24 9-24 8-36 9-29 5-27 3-14 1h-46l-38-4-30-5-29-7-29-9-27-10-26-12-15-8-11-6-14-8-18-12-17-12-17-14-11-9-7-7-8-7-15-15-7-8-10-11-8-10-13-17-18-27-9-15-12-22-14-30-13-35-8-27-7-31-5-35-2-24v-51l3-32 5-30 7-29 7-24 9-26 8-20 7-15 13-25 12-20 8-12 12-17 11-14 9-11 12-13 9-10 14-14 8-7 11-10 14-11 16-12 15-10 18-11 21-12 19-9 13-6 20-8 27-9 26-7 24-5 25-4 26-3z" transform="translate(696,111)"/>
<path fill="#1C9DBC" d="m0 0 10 1 10 5 15 14 10 11 6 10 1 3v10l-6 12-15 16-229 229-10 7-8 3h-8l-12-6-15-14-7-7-8-11-2-6v-12l5-10 11-12 234-234 11-7z" transform="translate(820,410)"/>
<path fill="#1C9DBC" d="m0 0h20l36 2 36 5 30 6 25 7 27 9 29 12 25 12 23 13 22 14 17 12 14 11 11 9 13 12 10 10 7 6 7 8 13 14 11 14 10 13 12 17 13 21 10 18 11 21 11 25 9 24 8 26 8 34 5 31 2 20 1 17v41l-4 42-5 29-6 26-9 29-9 25-13 29-14 27-14 23-7 10-10 14-13 17-13 15-7 7-7 8-14 14-8 7-14 13-24 18-17 12-23 14-26 14-29 13-24 9-24 8-36 9-29 5-27 3-14 1h-46l-38-4-30-5-29-7-29-9-27-10-26-12-15-8-11-6-14-8-18-12-17-12-17-14-11-9-7-7-8-7-15-15-7-8-10-11-8-10-13-17-18-27-9-15-12-22-14-30-13-35-8-27-7-31-5-35-2-24v-51l3-32 5-30 7-29 7-24 9-26 8-20 7-15 13-25 12-20 8-12 12-17 11-14 9-11 12-13 9-10 14-14 8-7 11-10 14-11 16-12 15-10 18-11 21-12 19-9 13-6 20-8 27-9 26-7 24-5 25-4 26-3zm-15 13-42 5-27 5-31 8-33 11-30 13-24 12-19 11-17 11-14 10-12 9-13 11-10 8-7 7-8 7-11 11-7 8-9 10-9 11-10 13-10 14-11 17-9 15-7 12-11 23-10 24-7 19-9 31-8 37-4 28-2 24v45l3 36 6 36 7 29 9 29 8 21 12 27 13 25 12 20 11 16 9 12 11 14 12 14 7 7 7 8 16 16h2v2l8 7 13 11 13 10 18 13 19 12 21 12 28 14 27 11 30 10 32 8 35 6 27 3 14 1h38l26-2 31-4 29-6 26-7 27-9 22-9 18-8 19-10 19-11 11-7 12-8 16-12 16-13 13-11 9-8v-2l4-2 10-10 7-8 13-14 10-13 14-19 11-17 12-20 12-23 10-21 10-26 8-25 8-32 6-36 3-33v-39l-2-28-5-38-8-36-7-24-9-26-8-19-8-16-12-23-14-23-12-17-10-13-9-11-12-14-7-7-7-8-8-8-8-7-13-12-14-11-18-13-21-14-26-15-22-11-26-11-23-8-27-8-31-7-33-5-21-2z" transform="translate(696,111)"/>
<path fill="#1C9DBC" d="m0 0h12l15 4 12 6 11 10 7 10 5 12 2 7v15l-4 15-6 11-11 12-14 8-9 3-5 1h-17l-12-3-12-7-10-9-6-8-5-10-3-11v-16l3-13 5-10 9-11 12-9 16-6z" transform="translate(592,400)"/>
<path fill="#1C9DBC" d="m0 0h18l13 3 11 6 10 9 6 8 6 12 2 6 1 7v10l-3 14-6 12-9 11-10 7-12 6-6 2h-22l-12-4-10-6-10-9-6-8-5-10-3-11v-17l3-12 6-12 11-12 11-7 11-4z" transform="translate(815,627)"/>
</svg>