<svg xmlns="http://www.w3.org/2000/svg" viewBox="422.90587549668874 119.8208 811.5602649006622 801.504" version="1.1" style="max-height: 500px" width="811.5602649006622" height="801.504">
<path fill="#FDFEFD" d="m0 0h1528v1012h-1528z" transform="translate(0)"/>
<path fill="#FDFEFD" d="m0 0h55l26 3 27 5 28 7 32 11 24 11 23 12 18 11 16 11 14 11 11 9 10 9 22 22 7 8 13 16 13 18 14 23 10 19 11 23 10 28 7 25 6 29 4 33 1 15v39l-4 35-6 30-9 31-10 26-8 18-12 22-11 18-13 19-13 16-7 8-9 10-22 22-11 9-16 13-21 14-13 8-14 8-23 11-25 10-25 8-28 7-32 5-22 2h-41l-28-3-29-5-25-6-19-6-24-9-26-12-18-10-22-14-16-12-14-11-15-14-10-9-22-24-13-17-10-14-7-11-12-21-11-22-13-34-7-24-6-26-4-27-2-23v-43l3-28 4-24 6-25 6-21 10-26 11-24 11-20 14-22 9-12 8-10 9-11 12-13 21-21 11-9 15-12 19-13 16-10 24-13 20-9 21-8 26-8 27-6 34-5z" transform="translate(802,144)"/>
<path fill="#1B9EBB" d="m0 0h202l10 4 9 8 7 10 1 3 1 45h37l11 4 8 6 10 9v2h2v2h2l7 8 31 31 8 7 10 10 9 11 4 7 2 6 1 84 15 2 6 5 2 10-1 22-4 7-3 2-7 1-32 1-1 11-5 15-6 11-9 11-9 8-14 8-16 5-5 1h-12l-17-4-16-8-9-7-7-7-7-10-6-13-4-20v-2h-51l-41 1-2 14-4 12-6 11-9 11-9 8-14 8-21 6h-13l-19-5-13-7-10-8-7-7-7-11-5-11-3-14v-102l23-1 92-1 2-6v-10l-1-4-154-1-7-1-2-5v-17l7-2 179-1 1-2v-19l-161-1-2-2-1-4v-9l1-8 4-1 183-1-1-19-2-2-17-1h-144l-46-1-1-1v-19l1-2 6-1 39-1v-26l1-14 3-10 6-8 7-6 7-4z" transform="translate(672,327)"/>
<path fill="#1B9EBB" d="m0 0 31 1 26 3 24 4 25 6 20 6 22 8 20 9 17 8 21 12 24 16 17 13 13 11 16 15 13 13 9 11 8 9 14 19 10 15 9 15 13 24 11 24 8 21 9 31 6 29 3 20 2 24v39l-4 38-5 27-6 23-10 30-13 30-12 23-14 23-13 18-10 13-10 11-7 8-11 12-8 7-14 13-14 11-19 14-21 13-24 13-20 9-17 7-31 10-24 6-22 4-25 3-13 1h-38l-30-3-30-5-28-7-30-10-26-11-21-11-11-6-13-8-12-8-16-12-20-16v-2l-4-2-28-28-18-22-13-18-11-17-11-19-11-23-10-24-10-30-7-28-5-31-2-23v-44l2-23 6-35 9-34 8-23 10-24 8-17 13-23 14-21 8-11 13-16 7-8 11-12 17-17 8-7 9-8 11-8 18-13 19-12 28-15 23-10 22-8 28-8 28-6 37-5zm-23 13-37 5-24 5-23 6-28 10-18 8-17 8-21 12-15 10-18 13-16 13-13 12-21 21-9 11-11 13-9 13-10 15-11 19-10 19-12 29-8 24-6 24-4 20-4 29-1 12v43l3 31 4 24 8 32 9 27 10 24 12 24 9 15 14 21 10 13 9 11 14 15 11 12 10 9 11 10 13 10 18 13 21 13 22 12 27 12 22 8 29 8 32 6 23 3 12 1h41l22-2 32-5 32-8 27-9 30-13 23-12 24-15 18-13 17-14 13-12 21-21 7-8 12-15 13-18 11-18 11-19 10-21 12-31 9-31 6-30 4-35v-39l-3-34-5-30-7-28-10-30-9-21-14-28-12-19-8-12-13-17-9-11-15-16-20-20-14-11-15-12-23-15-23-13-27-13-24-9-19-6-28-7-30-5-19-2z" transform="translate(825,131)"/>
<path fill="#FDFEFD" d="m0 0h24l5 2 10 9 61 61 2 4v6l-1 1-83 1h-21l-2-1v-82z" transform="translate(906,432)"/>
<path fill="#FDFEFD" d="m0 0h9l10 3 10 6 7 9 4 11v11l-3 10-6 9-8 7-8 4-5 1h-11l-12-4-10-9-5-7-3-10v-10l4-13 7-9 9-6z" transform="translate(709,597)"/>
<path fill="#FDFEFD" d="m0 0h9l13 4 11 8 6 10 2 7v12l-4 11-6 8-9 7-11 4h-11l-10-3-8-6-7-8-4-9-1-5v-10l4-12 6-8 9-6z" transform="translate(943,597)"/>
</svg>